<?xml version="1.0" encoding="utf-8"?>
<!-- Generator: Adobe Illustrator 26.0.2, SVG Export Plug-In . SVG Version: 6.00 Build 0)  -->
<svg version="1.1" id="Layer_1" xmlns="http://www.w3.org/2000/svg" xmlns:xlink="http://www.w3.org/1999/xlink" x="0px" y="0px"
	 viewBox="0 0 475.4 234.2" style="enable-background:new 0 0 475.4 234.2;" xml:space="preserve">
<style type="text/css">
	.st0{fill:#171717;}
</style>
<path class="st0" d="M475.4,10.9c-10.4-0.9-20.7-1.8-30.9-2.6c-2.2-0.2-4.3-0.4-3.8-0.9c1-0.1,2.1-0.2,2.9-0.1
	c11.1,0.7,21.7,1.6,31.8,2.8V7.5c-7.4-0.5-14.7-1-22.2-1.4C408.6,3.6,362,2.5,314.1,1.4c-24.9-0.6-50-1.1-75.6-1.2
	c-21.9-0.1-43.9-0.4-65.7,0c-15.4,0.2-30.9,0.5-46.1,0.9c-19,0.5-37.4,1.4-55.1,2.7C64,4.4,56.8,5.1,50.5,6.2
	c-1.1,0.2-3.4,0.3-1.6,0.9c4.2-0.3,8.3-0.6,12.5-0.9c4.5-0.3,9-0.6,13.7-0.8c3.9-0.3,7.8-0.7,12.7-0.4c-2.3,0.8-6.1,0.8-9.1,1.1
	C60,7.6,40.9,8.9,23.1,11C15.5,11.9,7.7,12.7,0,13.6v204.9c1.1,0.2,2.3,0.4,3.4,0.5c14.5,2.3,29.8,3.9,45.5,5.4
	c14.4,1.4,29.3,2.6,44.3,3.8c24.1,1.8,49.7,2.6,75,3.9c12.5,0.6,25.2,1.2,38.1,1.4c15.7,0.4,31.3,0.3,47,0.5
	c14.7,0.3,29.2,0,43.5-0.6c17.2-0.7,34.3-1.5,52.1-1.4c3.4,0,6.9,0,10.3-0.1c28.2-0.7,56.2-1.4,83.3-3.2c11.4-0.7,22.4-1.6,33-2.8
	V10.9z M28.2,215.6c-0.5-0.9,1.5-1.5,3.3-2.2c4.4,0.1,5.1,1.1,5.7,2.7C32.9,215.9,30.5,215.7,28.2,215.6z M54.9,47.8
	c0.3-0.2,0.9-0.3,1.4-0.4c0.3,0.1,1,0.4,0.9,0.4c-0.4,0.2-1,0.3-1.5,0.4C55.4,48.1,54.7,47.8,54.9,47.8z M55.7,208
	c-0.9,0.1-2,0.1-2.8,0c-0.7-0.1-1.2-0.4-2.2-0.7c1.7,0,2.7-0.1,3.5,0C55.9,207.4,56.7,207.9,55.7,208z M70.9,194.1
	c-0.2-0.1-0.5-0.2-0.7-0.2c-0.2,0-0.4,0-0.6-0.1c-0.1,0.1-0.1,0-0.2-0.1c-5.5,0.3-8.7-0.8-12.5-1.7c8,0.4,8.2,0.3,12.5,1.7
	c0.1,0,0.3,0,0.4,0c0.1,0,0.2,0.1,0.4,0.1c0.5,0.1,0.9,0.1,1.4,0.1C71.3,194.1,70.9,194.1,70.9,194.1z M102.6,4c-0.1,0-0.1,0-0.2,0
	c-0.4,0-0.8,0-1.3,0c0.4,0,0.9,0,1.3,0C102.5,4,102.5,4,102.6,4C102.6,4,102.6,4,102.6,4z M127.5,3c-3.1,0.3-6.3,0.4-9.4,0.6
	C113,3.7,107.9,3.8,102.8,4c0,0,0,0,0,0c0,0-0.1,0,0,0c0,0,0,0,0.1,0c4.7-0.6,9.4-1,15.3-0.4c0.3-0.2,0.2-0.5,0.8-0.5
	c8.6-0.5,17.2-1.1,26.7-0.9C140,2.7,133.5,2.6,127.5,3z M269.7,172.8c-0.2-0.1-0.3-0.1-0.4-0.2c0.2,0,0.7-0.1,0.7-0.1
	c0.2,0.1,0.4,0.2,0.5,0.3C270.2,172.8,269.9,172.8,269.7,172.8z M260.6,162c2.5-0.9,5.3-2.2,10.3-1.3
	C266.9,161.2,263.7,161.6,260.6,162z M246.1,2c-14.9,0-29.8,0-44.8,0.1c-4.8,0-9.4,0-14.3-0.3c-6.7-0.4-13.8-0.2-20.6,0
	c-6.7,0.2-13.4,0.3-20,0.4c-0.1,0-0.2,0-0.3,0c-0.1,0-0.2,0-0.3,0c0,0,0.1,0,0.1,0c0.1,0,0.3,0,0.5,0c0.5-0.1,1.1-0.3,1.7-0.3
	c11.6-0.2,23.1-0.6,34.7-0.8c14.8-0.2,29.8-0.2,44.6-0.3c26.2-0.1,52,0.4,77.4,1.2c0.6,0,1.1,0.1,1.9,0.2c-0.3,0.1-0.4,0.3-1,0.4
	c-0.7,0.1-1.9,0.2-2.9,0.2c-10-0.1-20.1-0.2-30-0.4C264.1,2.1,255.2,1.9,246.1,2z M320.7,225.3c-8.1,0.4-16.4,0.2-24.8,0.1
	c7.9-0.4,15.9-0.8,23.8-1.2c0.6,0,2.1,0.3,2.2,0.5C322.1,225,321.3,225.3,320.7,225.3z M342.5,40.4c-1.1-0.3-2.2-0.4-2.3-0.6
	c-0.2-0.2,0.6-0.5,1.1-0.7c0.4,0.1,1.2,0.2,1.4,0.3C342.8,39.6,342.6,39.9,342.5,40.4z M471.9,23.3c-1.3-0.3-2.7-0.7-4.1-1
	C471.1,22.1,471.2,22.9,471.9,23.3z M447.5,102.5c0.4,0.1,0.8,0.1,1.2,0.2c-0.2,0.1-0.3,0.2-0.5,0.3c-0.2,0-0.6-0.1-0.7-0.1
	C447.4,102.7,447.5,102.6,447.5,102.5z M409,6.3c-0.3,0-0.7,0.1-0.7,0.1c-0.3,0-0.5-0.1-0.7-0.1C408,6.2,408.5,6.3,409,6.3z
	 M371.2,27.8c-1-0.1-2.1-0.2-3.1-0.3c0.2-0.1,0.3-0.3,0.5-0.4c1.1,0.1,2.1,0.3,3.2,0.4C371.6,27.6,371.4,27.7,371.2,27.8z
	 M394.5,11.4c0,0.1-0.5,0.1-0.7,0.1c-0.8-0.1-1.5-0.2-2.8-0.4c1.6,0,2.5,0,3.3,0C394.5,11.1,394.6,11.3,394.5,11.4z M396.9,5.7
	c5.1-0.1,8.1-0.1,9.9,0.5c0.1,0,0.2,0,0.2,0c0.1,0,0.1,0,0.2,0c0,0-0.1,0-0.1,0c0,0-0.1,0-0.1,0c0,0-0.1,0-0.1,0c0,0,0,0-0.1,0
	C403.6,6.3,400.9,6.1,396.9,5.7z M421.1,112.2c-0.4-0.3-0.8-0.6-1.2-0.8c0.6-0.2,1-0.4,1.4-0.5c0.4,0.3,0.8,0.6,1.1,0.9
	C422.4,111.9,421.5,112.1,421.1,112.2z M426.1,141.1c-0.1-0.1-0.4-0.2-0.4-0.3c0-0.1,0.3-0.2,0.5-0.3c0.1,0.1,0.4,0.2,0.4,0.3
	C426.5,141,426.3,141,426.1,141.1z M406.4,26.8c2.3,0,3.4,0,4.2,0.1c10.7,1.4,20.3,3.3,29.7,5.4c3.2,0.7,5.5,1.6,6.6,2.9
	c0.2,0.2-0.1,0.5-0.2,0.6C433.7,32.8,420.6,29.9,406.4,26.8z M466.8,217c-6.5,0.8-12.4,1.9-19.8,2c-0.8,0-1.7-0.3-3.6-0.6
	c9.2-0.9,17.5-1.8,25.9-2.7C470.1,216.6,468.1,216.8,466.8,217z"/>
</svg>
