<?xml version="1.0" encoding="utf-8"?>
<!-- Generator: Adobe Illustrator 26.0.2, SVG Export Plug-In . SVG Version: 6.00 Build 0)  -->
<svg version="1.1" id="Layer_1" xmlns="http://www.w3.org/2000/svg" xmlns:xlink="http://www.w3.org/1999/xlink" x="0px" y="0px"
	 viewBox="0 0 841.9 56.6" style="enable-background:new 0 0 841.9 56.6;" xml:space="preserve">
<style type="text/css">
	.st0{fill-rule:evenodd;clip-rule:evenodd;fill:#171717;}
</style>
<path class="st0" d="M464,3.7C364.6,3.8,263.9,4,163.8,4.2c-32.4,0.1-63.2,0.1-95.9-0.4C46,3.5,23.1,3.5,0,3.7v53h841.9V6.3
	C775.8,5.9,709.4,5.8,644,4.9C584.2,4.3,524.8,3.7,464,3.7z M414.3,0.2C275.9-0.1,136.9-0.1,0,0.7v2c13.4-0.1,26.8-0.2,40.3-0.3
	c99.4-0.6,199.5-1,299.5-1.2c170.4,0.2,337.2,1,502.1,3.8V2.4C701.2,0.8,558.6-0.2,414.3,0.2z"/>
</svg>
